<?xml version="1.0" encoding="utf-8"?>
<!DOCTYPE svg PUBLIC "-//W3C//DTD SVG 1.0//EN" "http://www.w3.org/TR/2001/REC-SVG-20010904/DTD/svg10.dtd">
<svg version="1.0" xmlns="http://www.w3.org/2000/svg" width="500px" height="500px" viewBox="0 0 500 500" preserveAspectRatio="xMidYMid meet">
 <g fill="#ffffff">
  <path d="M233.15 402.64 c7.28 -3.08 13.96 -14.84 18.26 -32.03 2.64 -10.55 3.03 -14.75 3.32 -34.23 0.24 -16.31 0.20 -17.87 -0.54 -18.65 -0.73 -0.68 -1.86 -0.83 -7.08 -0.83 -7.52 0 -7.91 0.20 -8.25 4.10 -0.20 2.69 -0.24 2.73 -1.76 2.73 -1.22 0 -2.05 -0.54 -3.96 -2.49 -4.93 -5.03 -10.55 -6.20 -16.26 -3.32 -10.94 5.47 -15.28 22.90 -8.89 35.60 2.93 5.76 8.79 9.96 13.92 9.96 2.88 0 6.98 -1.71 9.62 -4.05 1.37 -1.17 2.20 -1.51 3.76 -1.51 l2 0 0 2.39 c0 5.03 -5.03 17.43 -9.42 23.24 -2.25 2.98 -6.25 6.98 -8.89 8.89 l-1.46 1.07 0.98 1.76 c1.32 2.49 5.66 6.35 8.15 7.23 2.69 0.98 4.39 0.98 6.49 0.15z m-54.15 -38.82 c0.24 -0.24 1.32 -0.68 2.39 -1.03 3.52 -1.12 6.69 -2.98 9.42 -5.57 3.37 -3.13 4.69 -5.22 6.20 -9.77 2.88 -8.54 0.59 -17.63 -6.05 -24.22 -5.18 -5.13 -10.45 -7.32 -17.63 -7.32 -12.21 0.05 -21.68 7.23 -24.66 18.80 -1.32 5.27 -0.59 10.84 2.20 16.36 2.83 5.62 9.67 10.79 16.41 12.40 3.22 0.78 10.99 1.03 11.72 0.34z m103.47 -1.32 c2.44 -0.98 3.81 -1.95 6.05 -4.39 2.54 -2.69 3.17 -3.13 4.64 -3.13 1.56 0 1.81 0.20 2.73 2.29 1.32 2.98 2.69 4.44 5.13 5.57 2.69 1.27 4.98 1.17 7.96 -0.34 3.32 -1.66 6.98 -6.05 4.98 -6.05 -0.24 0 -1.07 -1.03 -1.81 -2.29 l-1.37 -2.34 -0.15 -16.80 c-0.05 -12.06 -0.29 -16.99 -0.68 -17.53 -0.78 -0.93 -14.16 -0.68 -15.14 0.29 -0.49 0.49 -0.68 4.30 -0.88 15.87 -0.24 14.89 -0.24 15.28 -1.37 17.09 -1.46 2.34 -2.39 2.78 -5.47 2.78 -5.47 0 -5.57 -0.24 -5.86 -16.60 l-0.24 -13.43 -1.37 -2.29 c-3.61 -6.20 -11.47 -6.59 -16.65 -0.83 -2.05 2.20 -2.15 2.88 -0.73 4.15 2.49 2.20 2.88 4.15 2.88 14.36 0.05 17.14 1.27 20.95 7.81 23.88 2.98 1.37 5.71 1.27 9.52 -0.24z m111.87 0.24 c2.78 -0.88 3.86 -1.51 6.20 -3.81 1.51 -1.56 2.78 -3.03 2.78 -3.32 0 -0.29 -1.56 -0.63 -3.52 -0.83 -3.86 -0.34 -5.86 -1.27 -7.42 -3.37 -0.98 -1.32 -1.03 -2.05 -1.17 -14.21 -0.15 -11.62 -0.10 -12.89 0.68 -13.53 0.49 -0.44 2.44 -0.78 5.03 -0.93 3.91 -0.24 4.20 -0.34 4.88 -1.56 0.59 -1.03 0.63 -1.51 0.15 -2.54 -0.54 -1.27 -0.63 -1.27 -5.71 -1.27 l-5.13 0 0 -5.76 c0 -3.81 -0.20 -5.96 -0.59 -6.35 -0.39 -0.39 -2.83 -0.59 -7.71 -0.59 -4.88 0 -7.32 0.20 -7.71 0.59 -0.39 0.39 -0.59 2.49 -0.59 6.30 l0 5.71 -2.20 0.29 -2.20 0.34 0 2.20 0 2.15 2.15 0 2.15 0 0.20 15.04 c0.20 14.11 0.29 15.14 1.32 17.77 0.78 1.95 1.81 3.47 3.56 5.03 4.05 3.66 8.79 4.49 14.84 2.64z m-261.43 0.05 c1.37 -0.39 1.86 -0.83 2.05 -1.86 0.15 -0.73 0.24 -6.40 0.20 -12.65 l-0.05 -11.33 1.37 -2.34 c2.39 -4.10 7.13 -10.94 12.94 -18.70 5.91 -7.91 8.25 -11.72 9.23 -14.75 0.54 -1.56 0.44 -2.05 -0.44 -3.76 -1.71 -3.42 -6.20 -5.52 -13.96 -6.49 -5.13 -0.63 -6.35 -0.39 -5.81 1.22 0.68 2.15 0.88 12.55 0.24 15.63 -0.68 3.71 -2.54 8.50 -4.59 11.96 -1.37 2.29 -1.66 2.54 -3.27 2.54 l-1.71 0 -1.37 -4.49 c-4.15 -14.01 -10.25 -20.90 -18.51 -20.90 -1.76 0 -4.05 0.34 -5.22 0.73 -3.61 1.27 -7.32 4.93 -7.32 7.23 0 0.39 1.27 1.66 2.83 2.88 4.83 3.76 10.30 11.91 13.82 20.61 2.93 7.37 3.37 10.11 3.37 22.12 0 5.86 0.20 10.89 0.39 11.18 0.20 0.29 0.78 0.78 1.32 1.07 1.22 0.68 12.06 0.78 14.50 0.10z m205.32 -0.98 c0.44 -0.88 0.63 -4.64 0.63 -13.72 0 -10.11 0.15 -12.89 0.78 -14.75 0.98 -2.93 2.64 -4.25 5.27 -4.25 3.32 0 3.91 0.73 4.20 5.47 0.24 4 0.24 4.05 1.56 4.20 2.25 0.24 7.03 -2.25 9.42 -4.88 2.54 -2.83 3.96 -6.69 3.47 -9.28 -0.88 -4.79 -6.05 -9.03 -10.25 -8.35 -4.49 0.68 -7.91 3.66 -10.64 9.18 -1.46 2.93 -1.71 3.17 -3.17 3.17 -1.46 0 -1.61 -0.15 -1.61 -1.37 0 -2.25 -1.27 -5.86 -2.73 -7.76 -3.52 -4.64 -9.72 -4.35 -14.55 0.63 -0.98 1.03 -1.76 2 -1.76 2.20 0 0.24 0.73 1.42 1.61 2.69 l1.56 2.25 0.15 16.65 c0.05 9.18 0.20 17.19 0.34 17.77 0.34 1.42 0.93 1.51 8.54 1.42 6.49 -0.05 6.59 -0.05 7.18 -1.27z m-134.18 -42.19 c1.56 -2.49 5.08 -5.71 8.15 -7.42 l2.73 -1.56 -4.05 -2.10 c-4.88 -2.59 -10.94 -8.15 -14.50 -13.28 -5.37 -7.76 -11.33 -20.65 -11.33 -24.46 0 -2.10 0.24 -2.49 4.69 -7.57 9.13 -10.45 14.36 -17.58 15.09 -20.61 0.39 -1.56 -1.46 -3.96 -4.20 -5.32 -4.79 -2.49 -16.55 -4.25 -16.11 -2.44 0.10 0.39 0.29 3.27 0.39 6.35 0.20 4.30 0.05 6.35 -0.54 8.69 -1.61 6.01 -4.54 11.28 -9.33 16.60 -2 2.25 -2.54 2.54 -4.20 2.54 l-1.86 0 0.05 -7.42 c0.05 -7.91 -0.24 -9.38 -2.59 -12.70 -1.37 -1.86 -5.42 -3.81 -8.06 -3.81 -4.35 0 -9.86 2.69 -11.43 5.62 -0.63 1.17 -0.59 1.32 0.88 2.69 2.64 2.39 2.73 3.03 3.03 17.97 l0.24 13.87 3.42 1.07 c8.30 2.64 11.57 7.13 10.84 15.04 -0.29 3.08 -0.10 3.27 2.29 2.34 l1.27 -0.49 0 -9.77 0 -9.77 2.15 0 2.20 0 1.32 3.08 c2.39 5.42 7.71 15.63 10.01 19.14 4.54 6.93 9.96 12.26 14.70 14.40 2.88 1.32 3.56 1.22 4.74 -0.68z m26.03 -18.16 c6.69 -1.51 13.82 -7.08 16.75 -13.04 0.68 -1.46 1.61 -4.39 2.05 -6.54 0.68 -3.56 0.68 -4.25 -0.05 -7.76 -1.07 -5.37 -3.27 -9.62 -6.88 -13.18 -3.42 -3.47 -6.59 -5.22 -11.87 -6.59 -7.86 -2.05 -17.24 0.29 -23.19 5.81 -10.21 9.52 -10.45 24.71 -0.54 34.62 6.25 6.25 14.89 8.69 23.73 6.69z m42.29 -0.29 c0.44 -0.44 0.59 -3.96 0.59 -12.84 0 -14.06 0.49 -17.14 2.93 -19.38 1.81 -1.66 4.69 -1.86 6.40 -0.44 1.03 0.83 1.22 1.46 1.42 5.03 0.24 3.81 0.29 4.05 1.42 4.20 3.08 0.44 9.28 -3.81 11.28 -7.71 1.17 -2.29 1.66 -4.98 1.27 -7.03 -0.49 -2.64 -3.03 -5.96 -5.37 -7.08 -5.52 -2.69 -11.23 0.39 -15.09 8.15 -1.42 2.73 -1.66 3.03 -3.08 3.03 -1.61 0 -2.15 -0.78 -2.15 -3.22 0 -2.15 -2.54 -6.15 -4.79 -7.57 -2.73 -1.76 -4.88 -1.81 -8.15 -0.24 -2.20 1.03 -6.10 4.59 -6.10 5.57 0 0.24 0.44 0.83 1.03 1.37 2.59 2.34 2.64 2.64 2.78 20.70 0.10 10.94 0.34 17.04 0.68 17.43 0.68 0.88 14.11 0.88 14.94 0.05z m53.17 -1.07 c1.32 -0.63 3.52 -2.39 4.93 -3.91 2.25 -2.34 2.83 -2.73 4.39 -2.73 1.66 0 1.90 0.20 3.03 2.29 2.10 3.91 6.54 6.40 10.50 5.76 2.59 -0.34 6.40 -2.83 7.96 -5.13 l1.12 -1.66 -1.27 -1.12 c-2.88 -2.73 -2.93 -2.83 -3.08 -20.90 -0.10 -10.84 -0.34 -16.80 -0.68 -17.19 -0.39 -0.44 -2.34 -0.63 -7.28 -0.63 -7.86 0 -8.25 0.20 -8.25 3.96 l0 2.39 -1.81 0 c-1.56 0 -2.20 -0.39 -3.96 -2.20 -2.98 -3.08 -6.88 -4.88 -10.50 -4.79 -3.42 0.05 -8.01 2.10 -10.45 4.64 -10.55 10.94 -9.08 33.40 2.64 40.28 4.83 2.83 8.50 3.08 12.70 0.93z m39.84 -43.26 c0.15 -0.54 0.05 -0.98 -0.20 -0.98 -0.24 0 -0.44 0.10 -0.44 0.20 0 0.10 -0.15 0.54 -0.29 0.98 -0.15 0.44 -0.10 0.78 0.20 0.78 0.24 0 0.59 -0.44 0.73 -0.98z m-158.40 -32.76 c1.90 -0.39 2.88 -0.98 4.59 -2.83 1.95 -2.10 2.59 -2.44 5.08 -2.83 l2.83 -0.49 -4.69 -0.10 c-4.20 -0.05 -4.98 -0.20 -7.71 -1.56 -4.83 -2.44 -6.84 -5.86 -6.84 -11.91 -0.05 -4.10 0.98 -6.64 3.52 -8.89 2.39 -2.10 4.79 -2.78 9.62 -2.78 4.79 0 7.42 0.63 10.06 2.44 2.25 1.56 2.05 1.81 6.05 -6.40 3.42 -7.03 5.96 -14.31 6.01 -17.33 0.05 -3.08 -1.32 -6.84 -3.37 -9.18 -1.37 -1.61 -1.71 -2.39 -1.56 -3.61 0.15 -1.51 0.29 -1.61 2.20 -1.76 1.81 -0.15 2.44 0.15 6.35 3.08 2.34 1.76 5.42 3.71 6.74 4.39 5.42 2.64 11.23 3.32 17.24 1.95 4.69 -1.07 4.79 -1.17 3.81 -3.61 -0.44 -1.12 -0.78 -3.13 -0.78 -4.44 l0 -2.44 2.10 0 c1.76 0.05 2.20 0.24 3.03 1.61 2.64 4.15 8.06 5.62 16.89 4.54 l3.22 -0.44 0.24 4.35 c0.29 5.47 1.56 8.74 4.83 12.79 1.37 1.71 2.69 3.76 2.93 4.64 0.24 0.83 0.44 3.91 0.44 6.74 0 5.42 -0.83 8.94 -2.98 12.55 l-0.98 1.71 4.30 -0.29 c8.15 -0.59 14.45 -3.37 19.97 -8.89 2.69 -2.64 3.71 -4.05 4.54 -6.35 2.88 -7.76 -0.54 -16.36 -8.84 -22.07 -4.39 -3.08 -6.49 -5.32 -7.18 -7.81 -1.66 -5.91 0.63 -8.94 6.79 -8.94 2.44 0 2.44 0 2.15 -1.32 -1.17 -4.93 -3.66 -9.03 -7.67 -12.65 -4.98 -4.54 -10.94 -7.37 -22.31 -10.69 l-6.05 -1.76 -10.50 5.37 c-24.51 12.40 -49.61 21.44 -74.41 26.71 l-6.20 1.32 -1.81 2.44 c-0.93 1.37 -3.61 4.25 -5.86 6.40 -6.35 5.96 -10.84 13.04 -10.89 17.04 0 4.15 4.54 9.23 7.57 8.45 1.12 -0.29 1.12 -0.34 0.39 -1.81 -0.98 -1.90 -0.63 -6.49 0.49 -7.67 0.59 -0.54 1.90 -0.88 4.15 -0.98 2.78 -0.15 3.47 -0.05 4.64 0.88 1.22 0.98 1.32 1.27 1.32 5.03 0 4.59 -1.12 7.47 -5.08 13.13 -4.25 6.05 -4.49 7.91 -1.66 13.18 4.64 8.69 13.87 13.13 23.29 11.08z m57.47 -1.46 c1.76 -0.29 3.08 -0.63 2.98 -0.73 -0.10 -0.15 -1.86 0.05 -3.81 0.34 -3.32 0.54 -15.28 0.34 -19.97 -0.29 -1.61 -0.20 -1.56 -0.20 0.24 0.29 5.66 1.42 13.72 1.56 20.56 0.39z m-37.84 -6.74 c-0.39 -0.24 -0.98 -0.34 -1.37 -0.20 -1.03 0.39 -0.73 0.63 0.73 0.63 0.98 0 1.12 -0.15 0.63 -0.44z m22.07 -24.46 c1.86 -2.15 2 -3.86 0.78 -7.13 -0.54 -1.61 -1.12 -3.81 -1.27 -4.93 l-0.24 -2.10 -2.29 0 c-2.88 0 -4.15 0.88 -5.18 3.56 -0.68 1.81 -0.73 2.49 -0.24 4.30 1.27 4.59 3.76 7.76 6.10 7.76 0.63 0 1.66 -0.63 2.34 -1.46z m33.59 -5.66 c1.56 -1.71 1.81 -5.27 0.49 -8.25 -0.54 -1.27 -1.03 -3.08 -1.03 -3.96 l0 -1.66 -2.49 0 c-2.05 0 -2.69 0.24 -3.86 1.37 -1.86 1.86 -2.25 4.30 -1.27 7.28 0.98 2.98 2.25 4.88 3.96 6.01 1.56 1.03 2.69 0.83 4.20 -0.78z m-84.72 -37.99 c21.09 -4.79 46.04 -13.92 68.16 -25 4.49 -2.25 8.45 -4.10 8.74 -4.10 0.29 0 1.12 -0.49 1.86 -1.12 l1.32 -1.07 -1.51 -9.91 -1.46 -9.86 -3.27 0 c-3.32 0 -3.32 0 -3.32 1.37 0 1.27 -0.20 1.46 -2.49 1.95 -3.32 0.78 -5.42 0.73 -10.79 -0.20 -10.64 -1.86 -25 0.54 -36.28 6.01 -8.01 3.91 -12.65 7.13 -18.07 12.55 l-5.32 5.37 -3.08 0.20 c-3.03 0.20 -3.08 0.20 -3.08 -1.07 0 -0.68 -0.20 -1.27 -0.49 -1.27 -0.24 0 -2.34 1.17 -4.64 2.59 -3.52 2.15 -4.15 2.69 -3.91 3.56 0.10 0.59 2.25 5.42 4.69 10.74 2.44 5.37 4.54 10.01 4.69 10.35 0.34 0.78 -0.24 0.83 8.25 -1.07z"/>
  <path d="M225.78 352.59 c-2.69 -1.61 -3.76 -4.79 -4 -11.43 -0.24 -6.79 0.63 -10.94 2.83 -13.57 1.32 -1.56 1.51 -1.66 5.32 -1.81 l4 -0.20 1.61 1.71 c2.29 2.44 2.98 5.37 2.98 12.55 0 7.13 -0.78 9.81 -3.47 12.21 -1.51 1.32 -2.05 1.46 -4.74 1.46 -2.10 0 -3.47 -0.29 -4.54 -0.93z"/>
  <path d="M169.09 355.42 c-2.83 -1.37 -4.39 -4.64 -5.08 -10.50 -0.93 -8.15 0.59 -16.70 3.47 -19.48 1.32 -1.27 1.86 -1.42 5.52 -1.61 4 -0.20 4.10 -0.20 5.57 1.32 2.44 2.39 3.17 5.27 3.47 12.99 0.34 10.84 -0.93 15.53 -4.79 17.43 -2.29 1.17 -5.66 1.12 -8.15 -0.15z"/>
  <path d="M219.63 293.21 c-2.93 -1.61 -4.79 -7.32 -4.79 -15.14 0 -8.01 1.27 -12.70 4.10 -15.38 1.71 -1.56 6.64 -2 9.13 -0.78 3.96 1.86 5.52 7.28 5.18 17.63 -0.24 7.91 -1.03 10.64 -3.56 12.94 -1.56 1.37 -2 1.46 -5.22 1.46 -2.10 -0.05 -4.05 -0.34 -4.83 -0.73z"/>
  <path d="M323.73 290.38 c-0.93 -0.59 -2.05 -1.76 -2.54 -2.54 -2 -3.47 -2.34 -13.82 -0.59 -18.95 0.44 -1.32 1.46 -2.88 2.44 -3.76 1.56 -1.37 2 -1.46 5.32 -1.46 3.13 0 3.76 0.15 5.08 1.22 2.44 2.05 3.47 5.71 3.47 12.16 0 6.88 -0.83 10.06 -3.42 12.60 -1.76 1.76 -2 1.86 -4.98 1.86 -2.49 0 -3.52 -0.24 -4.79 -1.12z"/>
  <path d="M243.70 121.53 c-0.63 -2 -1.56 -4.30 -2.05 -5.13 -2 -3.32 -0.73 -6.54 2.59 -6.54 1.12 0 1.37 -0.20 1.37 -1.17 0 -1.76 1.07 -2.29 4.25 -2.15 l2.83 0.15 0 3.96 c0 4.69 0.44 5.37 4.49 7.32 2.25 1.12 2.59 1.46 2.59 2.73 0 0.78 -0.34 1.95 -0.83 2.64 -0.73 1.17 -1.03 1.22 -4.74 1.17 -2.20 -0.05 -5.18 0.05 -6.64 0.24 l-2.69 0.34 -1.17 -3.56z"/>
 </g>
 <g fill="#0358b5">
  <path d="M225.10 403.96 c-3.03 -1.07 -8.01 -6.10 -8.74 -8.79 -0.68 -2.54 -0.44 -3.17 1.95 -4.83 2.64 -1.81 7.47 -7.08 9.62 -10.35 2.34 -3.66 5.08 -9.77 6.64 -14.65 2 -6.30 1.66 -7.23 -1.56 -4.44 -4.88 4.30 -12.16 5.42 -17.77 2.78 -7.47 -3.47 -11.72 -11.87 -11.77 -23.10 -0.05 -11.38 4.44 -20.36 11.96 -24.12 2.69 -1.37 3.42 -1.51 7.42 -1.51 5.52 0 7.76 0.93 11.57 4.69 l2.73 2.73 0.24 -2.83 c0.34 -4 0.54 -4.10 9.72 -4.10 6.59 0 7.81 0.10 8.50 0.83 0.78 0.73 0.83 2.44 0.59 20.12 -0.29 21.09 -0.63 24.90 -3.32 35.69 -4.30 17.19 -10.99 28.96 -18.26 32.03 -2.15 0.88 -6.74 0.83 -9.52 -0.15z m8.50 -53.37 c2.49 -2.20 3.47 -5.18 3.47 -10.74 0 -5.66 -0.88 -8.84 -2.98 -11.08 -1.56 -1.66 -1.76 -1.71 -4.20 -1.51 -2.15 0.24 -2.78 0.54 -3.86 1.86 -3.08 3.66 -3.86 13.77 -1.42 18.80 2.05 4.20 5.91 5.37 8.98 2.69z"/>
  <path d="M165.82 364.94 c-9.23 -2.25 -16.50 -9.38 -18.60 -18.36 -2.10 -8.94 0.15 -18.07 5.96 -24.37 5.08 -5.47 10.99 -7.76 20.17 -7.76 8.74 0 13.57 1.86 19.09 7.32 5.13 5.08 7.47 11.13 7.42 19.04 -0.05 4.54 -1.61 10.16 -3.76 13.57 -2.64 4.15 -8.11 8.25 -13.23 9.86 -1.07 0.34 -2.15 0.78 -2.44 1.03 -0.68 0.68 -11.43 0.44 -14.60 -0.34z m10.79 -11.23 c3.03 -1.95 4.35 -7.23 3.91 -15.63 -0.29 -6.15 -1.22 -9.28 -3.42 -11.47 -1.42 -1.42 -1.66 -1.51 -4.15 -1.27 -2 0.20 -3.03 0.63 -4.05 1.61 -3.86 3.71 -4.79 16.99 -1.66 23.44 2 4.15 6.01 5.57 9.38 3.32z"/>
  <path d="M271.48 364.21 c-6.54 -2.93 -7.76 -6.74 -7.81 -23.88 0 -10.40 -0.39 -12.11 -3.13 -14.60 -1.56 -1.46 -1.66 -3.27 -0.15 -5.47 4.93 -7.37 16.50 -7.67 20.70 -0.54 l1.37 2.29 0.24 13.43 c0.20 11.77 0.34 13.62 1.12 14.79 1.76 2.69 5.03 2.34 7.03 -0.73 l1.37 -2 0.24 -15.28 c0.20 -11.62 0.39 -15.43 0.88 -15.92 0.44 -0.44 2.98 -0.68 9.08 -0.78 7.18 -0.15 8.50 -0.05 9.03 0.59 0.49 0.59 0.68 4.54 0.73 17.48 l0.05 16.75 1.32 2.25 c0.73 1.27 1.66 2.39 2.10 2.59 1.27 0.49 0.88 2.98 -0.88 5.22 -2.34 3.13 -5.96 4.83 -10.06 4.83 -5.32 -0.05 -8.25 -1.90 -10.30 -6.49 -0.59 -1.27 -1.12 -2.29 -1.27 -2.29 -0.10 0 -1.56 1.42 -3.17 3.13 -2.25 2.44 -3.61 3.42 -6.05 4.39 -4.10 1.61 -9.18 1.76 -12.45 0.24z"/>
  <path d="M382.76 364.45 c-3.32 -1.03 -6.98 -4.49 -8.30 -7.91 -1.03 -2.64 -1.12 -3.66 -1.32 -17.77 l-0.20 -15.04 -2.10 0 -2.05 0 -0.29 -2.54 c-0.49 -3.96 -0.15 -4.69 2.39 -5.08 l2.15 -0.29 0 -5.71 c0 -3.81 0.20 -5.91 0.59 -6.30 0.39 -0.39 3.13 -0.59 9.18 -0.59 6.05 0 8.79 0.20 9.18 0.59 0.39 0.39 0.59 2.54 0.59 6.35 l0 5.76 5.13 0 c4.54 0 5.13 0.10 5.62 0.93 0.73 1.42 0.59 5.08 -0.29 6.30 -0.63 0.98 -1.17 1.07 -4.54 1.07 -6.25 0 -6.01 -0.54 -5.81 13.04 0.15 10.60 0.20 11.38 1.17 12.70 1.61 2.10 3.56 3.03 7.47 3.37 2.29 0.24 3.66 0.59 3.81 1.03 0.54 1.37 -0.54 3.42 -3.17 6.05 -2.29 2.29 -3.37 2.93 -6.15 3.81 -3.91 1.22 -9.62 1.32 -13.04 0.24z"/>
  <path d="M116.94 364.16 c-0.54 -0.29 -1.12 -0.78 -1.32 -1.07 -0.20 -0.29 -0.39 -5.37 -0.39 -11.28 0 -11.52 -0.34 -14.06 -2.78 -20.51 -3.66 -9.86 -8.98 -17.72 -15.92 -23.54 -1.76 -1.42 -1.86 -1.66 -1.51 -3.42 0.49 -2.73 1.42 -4.25 3.56 -5.96 2.83 -2.29 5.37 -2.98 10.64 -2.98 3.91 0 4.98 0.20 7.18 1.22 5.27 2.49 9.42 8.79 12.60 19.04 0.83 2.69 1.56 4.98 1.66 5.08 0.34 0.39 1.56 -1.51 3.37 -5.22 3.52 -7.18 4.49 -14.45 2.83 -21.88 -0.68 -3.17 -0.68 -3.76 -0.10 -4.15 0.93 -0.59 6.30 -0.54 10.21 0.05 12.40 1.95 16.31 7.37 11.77 16.31 -0.88 1.66 -4.10 6.45 -7.23 10.60 -5.81 7.81 -11.23 15.58 -13.53 19.58 l-1.37 2.34 0.05 11.57 c0 6.35 -0.10 12.06 -0.24 12.70 -0.20 0.73 -0.83 1.27 -2.10 1.61 -2.44 0.68 -16.16 0.59 -17.38 -0.10z"/>
  <path d="M322.27 364.40 c-0.39 -0.15 -0.88 -0.54 -1.07 -0.83 -0.20 -0.29 -0.39 -7.76 -0.39 -16.65 0 -9.13 -0.20 -16.85 -0.49 -17.82 -0.24 -0.93 -1.22 -2.64 -2.15 -3.81 -1.46 -1.86 -1.61 -2.25 -1.22 -3.52 0.68 -1.86 3.47 -4.64 5.96 -5.91 2.98 -1.56 7.42 -1.76 10.21 -0.54 3.52 1.56 6.20 6.10 6.25 10.55 0 1.32 0.24 1.12 1.95 -2.10 3.37 -6.35 6.35 -8.59 12.06 -9.13 3.03 -0.24 3.56 -0.15 6.01 1.12 9.03 4.79 7.32 18.70 -2.83 23.24 -3.76 1.71 -6.84 2.15 -8.15 1.17 -0.83 -0.63 -0.93 -1.22 -0.83 -4.15 0.15 -2.93 0 -3.61 -0.83 -4.44 -1.27 -1.27 -2.05 -1.27 -3.61 -0.05 -2.39 1.90 -2.78 4.35 -2.78 18.02 0 9.08 -0.20 12.84 -0.63 13.72 l-0.63 1.22 -8.01 0.10 c-4.44 0.05 -8.40 -0.05 -8.79 -0.20z"/>
  <path d="M199.37 322.31 c-5.08 -1.76 -10.89 -6.98 -15.63 -14.11 -2.64 -3.96 -7.91 -13.96 -10.60 -19.97 -0.73 -1.76 -1.61 -3.08 -2.05 -3.08 -0.59 0 -0.68 1.56 -0.68 9.77 l0 9.77 -1.27 0.49 c-1.61 0.63 -6.05 0.63 -6.05 0 0 -0.24 0.24 -1.56 0.54 -2.93 0.39 -1.76 0.39 -3.13 0 -4.98 -1.03 -4.59 -4.20 -7.42 -10.55 -9.47 l-3.42 -1.07 -0.24 -13.87 c-0.20 -9.23 -0.44 -14.26 -0.88 -15.19 -0.29 -0.73 -1.42 -2.15 -2.49 -3.17 -1.71 -1.66 -1.86 -1.95 -1.46 -3.37 0.24 -0.88 1.27 -2.39 2.25 -3.37 2.69 -2.73 5.52 -3.76 10.64 -4 4.05 -0.15 4.59 -0.05 7.08 1.22 4.98 2.54 6.59 7.37 6.15 18.16 -0.10 2.44 0 4.44 0.20 4.44 0.63 0 4.79 -4.83 6.93 -7.96 5.08 -7.47 6.74 -14.94 5.08 -22.80 -0.93 -4.44 -0.78 -4.59 5.32 -4.25 7.91 0.49 14.50 2.69 17.09 5.81 1.17 1.37 1.32 1.90 1.12 4.10 -0.34 4 -4.15 9.57 -15.23 22.22 -2.59 2.93 -4.69 5.66 -4.69 6.10 0 1.22 3.27 8.84 6.15 14.31 5.86 11.08 12.11 17.97 20.12 22.17 5.71 2.98 5.86 3.76 1.42 6.05 -3.32 1.76 -6.49 4.54 -8.69 7.81 -1.66 2.39 -2.29 2.54 -6.15 1.17z"/>
  <path d="M217.04 303.03 c-4.64 -1.12 -8.94 -3.52 -12.16 -6.79 -5.22 -5.22 -7.32 -10.64 -7.32 -18.90 0.05 -7.91 2.44 -13.62 7.86 -18.65 4.35 -4.05 9.67 -6.10 17.04 -6.59 13.92 -0.93 25.05 7.13 27.78 20.12 0.39 1.90 0.73 4.54 0.73 5.86 0 3.47 -1.22 8.84 -2.73 11.87 -2.88 5.91 -10.06 11.47 -16.70 12.99 -4 0.93 -10.99 0.98 -14.50 0.10z m11.18 -12.01 c2.34 -2.10 3.27 -5.08 3.56 -11.47 0.39 -8.74 -1.42 -14.36 -5.18 -16.16 -4.49 -2.15 -8.64 1.46 -9.81 8.64 -1.42 8.74 0.54 17.68 4.30 19.73 2.29 1.22 5.22 0.93 7.13 -0.73z"/>
  <path d="M255.96 302.59 c-0.34 -0.39 -0.59 -6.49 -0.68 -17.43 -0.15 -18.31 -0.15 -18.26 -3.03 -20.95 -2 -1.90 -1.46 -4.15 1.76 -7.23 2.49 -2.39 5.47 -3.56 9.23 -3.56 2.69 0 3.52 0.24 5.42 1.42 2.34 1.46 4.74 5.42 4.83 7.81 0.05 3.03 0.68 3.08 2.10 0.20 2.83 -5.76 6.05 -8.59 10.84 -9.47 5.37 -0.98 10.30 1.71 12.21 6.69 1.07 2.83 0.73 8.45 -0.68 11.18 -2.88 5.62 -11.52 10.11 -14.99 7.86 -1.17 -0.78 -1.22 -0.98 -0.93 -4.15 0.29 -3.17 0.24 -3.47 -0.93 -4.64 -1.61 -1.61 -1.95 -1.56 -3.76 0.10 -2.44 2.25 -2.93 5.32 -2.93 19.38 0 8.89 -0.15 12.40 -0.59 12.84 -0.88 0.88 -17.19 0.83 -17.87 -0.05z"/>
  <path d="M315.58 302.54 c-9.18 -2.98 -14.01 -11.33 -14.01 -24.22 0 -11.67 4.25 -20.31 11.87 -24.02 2.69 -1.37 3.61 -1.56 7.32 -1.56 3.66 -0.05 4.54 0.15 6.98 1.32 1.56 0.78 3.76 2.34 4.88 3.52 1.17 1.22 2.25 2.20 2.49 2.20 0.20 0 0.34 -1.07 0.34 -2.39 0 -3.86 0.20 -3.96 9.72 -3.96 6.15 0 8.35 0.15 8.74 0.63 0.34 0.39 0.59 6.35 0.68 17.19 0.15 16.41 0.15 16.60 1.27 18.55 0.63 1.07 1.61 2.20 2.10 2.59 2.10 1.46 0.78 5.42 -2.78 8.15 -6.15 4.64 -14.89 3.22 -18.51 -3.03 -0.78 -1.42 -1.61 -2.54 -1.81 -2.59 -0.20 0 -1.51 1.22 -2.93 2.73 -3.47 3.66 -6.49 5.18 -10.89 5.37 -2.05 0.10 -4.25 -0.10 -5.47 -0.49z m16.46 -14.36 c2.34 -2.34 3.42 -5.81 3.42 -11.13 0 -7.42 -2.69 -11.91 -7.08 -11.91 -5.32 0 -8.54 7.37 -7.08 16.36 0.63 4 1.66 5.96 3.91 7.42 2.49 1.71 4.64 1.51 6.84 -0.73z"/>
  <path d="M363.13 260.89 c-0.44 -0.39 -0.44 -4.69 -0.05 -5.71 0.20 -0.54 0.93 -0.78 2.20 -0.78 2.20 0 2.83 0.83 2 2.64 -0.39 0.88 -0.34 1.42 0.15 2.15 0.73 0.98 0.54 1.56 -0.59 1.56 -0.34 0 -0.63 -0.34 -0.63 -0.73 0 -1.07 -1.51 -0.88 -1.81 0.24 -0.24 1.03 -0.73 1.22 -1.27 0.63z"/>
  <path d="M198.73 226.03 c-1.46 -0.20 -3.61 -0.68 -4.69 -1.12 -8.50 -2.98 -15.04 -12.65 -13.67 -20.02 0.20 -0.98 1.66 -3.71 3.27 -6.10 3.96 -6.01 5.32 -8.98 5.32 -12.11 0 -2.15 -0.20 -2.69 -1.32 -3.56 -1.56 -1.22 -4.59 -1.12 -5.96 0.20 -1.27 1.27 -0.98 4.30 0.63 6.35 1.66 2.20 1.37 2.64 -2 3.08 -3.17 0.34 -4.54 0 -6.54 -1.66 -2.20 -1.86 -3.37 -4.69 -3.37 -8.20 0 -5.57 3.61 -11.72 10.89 -18.60 2.25 -2.15 4.93 -5.03 5.86 -6.40 l1.81 -2.44 6.20 -1.32 c24.80 -5.27 49.90 -14.31 74.37 -26.71 6.74 -3.42 11.04 -5.32 12.06 -5.32 1.95 0 12.30 2.98 17.53 5.08 7.47 2.98 13.62 7.52 16.70 12.40 1.86 2.93 3.52 7.76 3.52 10.40 l0 2 -2.34 -0.34 c-2.98 -0.39 -6.05 0.73 -6.88 2.49 -0.78 1.71 0.10 4.64 2 6.79 0.83 0.98 3.17 2.88 5.18 4.30 6.69 4.59 9.96 10.50 10.01 17.92 0 6.05 -1.27 9.03 -5.71 13.43 -5.57 5.52 -11.82 8.30 -20.02 8.89 l-4.35 0.29 -3.66 3.86 c-12.01 12.55 -31.01 17.97 -50.29 14.31 -4.74 -0.93 -8.35 -2.10 -13.48 -4.49 l-3.81 -1.81 -3.03 1.03 c-1.61 0.59 -4.05 1.22 -5.32 1.42 -2 0.24 -2.73 0.68 -4.59 2.69 -1.81 1.95 -2.64 2.44 -4.69 2.83 -4.25 0.78 -6.79 0.93 -9.62 0.49z m65.19 -5.57 c11.04 -1.76 20.02 -6.30 26.90 -13.48 5.18 -5.47 7.52 -10.69 7.52 -16.99 0 -4.98 -0.44 -6.30 -3.37 -9.91 -3.27 -4.05 -4.54 -7.32 -4.83 -12.74 l-0.20 -4.25 -1.81 0.34 c-2.59 0.59 -9.77 0.44 -12.06 -0.24 -2.64 -0.78 -5.08 -2.49 -6.30 -4.35 -1.12 -1.81 -2.20 -2.10 -2.20 -0.63 0 1.46 1.32 4.44 2.54 5.71 1.32 1.42 1.03 1.71 -3.03 3.13 -2.25 0.73 -4.74 1.12 -8.54 1.32 -8.59 0.34 -13.04 -1.12 -20.95 -6.98 -4.93 -3.71 -6.88 -4 -4 -0.68 3.86 4.54 4.49 11.13 1.86 18.90 -1.71 5.03 -6.01 14.16 -8.40 17.87 l-1.51 2.39 -1.56 -1.61 c-4 -4.10 -11.82 -5.37 -16.80 -2.73 -3.17 1.66 -5.52 5.52 -5.52 8.94 0.05 4.44 2.54 8.20 6.88 10.35 2.49 1.22 3.61 1.51 6.30 1.51 3.13 0 8.40 -1.37 9.47 -2.44 0.83 -0.83 1.90 -0.54 5.18 1.17 9.72 5.18 23.10 7.28 34.42 5.42z"/>
  <path d="M214.16 211.38 c-2.78 -2.20 -3.61 -6.59 -1.76 -9.57 0.73 -1.27 1.32 -1.61 2.44 -1.61 1.61 0 1.81 0.59 0.73 2.44 -0.39 0.68 -0.68 2.05 -0.73 3.13 0 1.56 0.29 2.20 1.76 3.56 1.90 1.81 1.95 3.08 0.05 3.08 -0.68 0 -1.76 -0.44 -2.49 -1.03z"/>
  <path d="M265.28 202.59 c-2.15 -0.49 -3.37 -1.51 -2.83 -2.39 0.15 -0.24 1.81 -0.49 3.66 -0.49 3.08 0 3.52 -0.15 5.08 -1.51 2.78 -2.39 4.88 -1.12 2.69 1.66 -1.90 2.49 -5.13 3.52 -8.59 2.73z"/>
  <path d="M243.16 193.75 c-3.66 -2.44 -5.86 -9.91 -4.20 -14.31 1.12 -2.88 2.29 -3.66 5.71 -3.66 1.86 0 2.98 -0.24 3.37 -0.73 0.34 -0.39 1.03 -0.73 1.51 -0.73 1.03 0 1.22 1.56 0.44 3.61 -0.34 0.93 -0.20 1.76 0.54 3.47 1.27 2.88 1.71 6.93 0.98 9.13 -1.27 3.81 -5.18 5.37 -8.35 3.22z"/>
  <path d="M276.51 187.99 c-3.27 -2.20 -5.47 -9.62 -4.05 -13.87 0.83 -2.59 2.54 -3.71 5.66 -3.71 1.42 0 2.73 -0.20 2.88 -0.49 0.15 -0.24 0.88 -0.49 1.56 -0.49 1.22 0 1.22 0.10 0.93 2.25 -0.20 1.51 -0.05 2.64 0.44 3.61 2.10 4.05 1.86 10.01 -0.49 12.21 -1.66 1.56 -4.93 1.81 -6.93 0.49z"/>
  <path d="M185.99 146.14 c-3.71 -7.81 -8.74 -19.24 -8.74 -19.73 0 -0.54 6.20 -4.54 9.86 -6.40 1.56 -0.78 3.61 -1.95 4.59 -2.59 1.03 -0.68 2.49 -1.22 3.37 -1.22 l1.61 0 -3.27 3.22 -3.22 3.22 1.81 -0.24 c1.46 -0.24 2.69 -1.17 7.08 -5.57 4.10 -4.15 6.35 -5.96 10.16 -8.20 12.89 -7.62 21.68 -10.30 34.91 -10.84 5.52 -0.24 8.25 -0.10 12.11 0.54 4.25 0.73 5.42 0.73 7.71 0.24 3.32 -0.73 2.64 -1.17 -2.93 -1.66 -2.73 -0.24 -3.61 -0.54 -3.27 -0.88 0.59 -0.59 17.68 -1.42 18.16 -0.88 0.24 0.29 3.42 20.61 3.37 21.92 0 0.78 -2.44 2.98 -3.32 3.03 -0.34 0 -4.30 1.86 -8.79 4.10 -13.82 6.88 -28.81 13.13 -43.55 18.02 -12.21 4.05 -20.31 6.20 -33.59 8.89 l-1.61 0.34 -2.44 -5.32z m63.18 -23.44 c0.20 -0.10 0.34 -0.54 0.34 -0.93 0 -0.98 1.37 -0.83 2.78 0.29 1.76 1.37 4.25 1.27 5.18 -0.20 0.78 -1.17 0.78 -1.17 -1.76 -2.44 -1.42 -0.68 -3.27 -1.95 -4.10 -2.83 l-1.56 -1.61 0.78 -2.78 c0.93 -3.32 0.63 -4.30 -1.22 -4.30 -2 0 -2.54 0.73 -1.95 2.64 0.34 1.07 0.34 2.10 0.05 3.03 l-0.49 1.42 -0.78 -1.81 c-0.88 -2.05 -1.66 -2.29 -3.32 -0.93 l-1.07 0.88 0.98 1.66 c0.59 0.93 1.51 3.22 2.15 5.18 1.07 3.37 1.17 3.52 2.34 3.22 0.68 -0.15 1.42 -0.39 1.66 -0.49z"/>
 </g>
</svg>